<svg xmlns="http://www.w3.org/2000/svg" width="3117" height="521" viewBox="0 0 3117 521" fill="none"><g clip-path="url(#clip0_143_2)"><path d="M214.111 392.441C220.872 405.974 232.141 410.485 241.156 410.485H243.41V412.74H144.243V410.485H146.497C155.512 410.485 164.527 403.718 157.766 390.186L141.989 349.589H69.8677L54.0911 390.186C49.5835 403.718 58.5987 410.485 65.3601 410.485H67.6139V412.74H0V410.485H2.2538C11.269 410.485 22.538 405.974 29.2993 392.441L101.421 221.03C103.675 216.519 117.197 187.199 117.197 178.177H119.451L214.111 392.441ZM137.482 338.312L105.928 257.117L74.3753 338.312H137.482Z" fill="black"></path><path d="M320.039 392.441C320.039 403.718 329.055 412.74 340.324 412.74H344.831V414.996H247.918V412.74H252.426C263.695 412.74 272.71 403.718 272.71 392.441V209.753C272.71 198.476 263.695 189.454 252.426 189.454H247.918V187.199H342.577V189.454H338.07C326.801 189.454 317.786 198.476 317.786 209.753V392.441H320.039ZM448.506 392.441C457.521 405.974 468.79 412.74 480.059 412.74V414.996H453.013C443.998 414.996 405.684 414.996 385.4 387.931C378.638 378.909 329.055 306.736 329.055 306.736L403.43 202.987C407.937 196.221 405.684 187.199 396.669 187.199H394.415V184.944H466.536V187.199H464.282C450.76 187.199 437.237 193.965 430.475 202.987L369.623 279.671L448.506 392.441Z" fill="black"></path><path d="M748.26 392.441C750.514 405.974 759.529 412.74 770.798 412.74H775.305V414.995H680.646V412.74H685.154C691.915 412.74 698.676 405.974 696.422 399.208L682.9 279.671L624.301 385.675C624.301 385.675 613.032 405.974 613.032 421.762H610.778L529.642 279.671L518.373 399.208C518.373 405.974 522.88 412.74 529.642 412.74H534.149V414.995H468.789V412.74H473.297C484.566 412.74 495.835 405.974 495.835 392.441L525.134 180.433H527.388L624.301 349.589L718.96 180.433H721.214L748.26 392.441Z" fill="black"></path><path d="M951.101 414.996H788.828V412.74H793.336C804.605 412.74 813.62 403.718 813.62 392.441V207.498C813.62 196.221 804.605 187.199 793.336 187.199H788.828V184.944H910.533C924.056 184.944 942.086 180.433 948.848 178.177V236.818H946.594V232.307C946.594 212.009 935.325 198.476 915.041 198.476H860.95V295.459H901.518C917.294 295.459 928.563 284.182 928.563 266.138V263.883H930.817V340.567H928.563V338.312C928.563 322.524 917.294 311.247 901.518 308.991H858.696V401.463H899.264C930.817 401.463 951.101 381.164 960.117 347.333H962.37L951.101 414.996Z" fill="black"></path><path d="M1235.08 184.944V187.199H1228.32C1217.05 187.199 1210.29 196.221 1208.03 207.498V378.909C1208.03 403.718 1212.54 421.762 1212.54 421.762H1210.29L1050.27 263.883V394.697C1050.27 405.974 1059.28 414.995 1070.55 414.995H1077.31V417.251H982.654V414.995H989.416C1000.68 414.995 1009.7 405.974 1009.7 394.697V221.03C1009.7 196.221 1005.19 180.433 1005.19 180.433H1007.45L1167.47 338.312V207.498C1167.47 196.221 1158.45 187.199 1147.18 187.199H1140.42V184.944H1235.08Z" fill="black"></path><path d="M1383.83 297.714C1401.86 311.247 1413.13 327.034 1413.13 351.844C1410.88 394.697 1379.32 419.506 1329.74 419.506C1300.44 419.506 1275.65 412.74 1264.38 399.208C1259.87 385.675 1264.38 358.61 1271.14 342.822H1273.39C1271.14 376.654 1295.93 405.974 1331.99 405.974C1359.04 405.974 1374.81 390.186 1374.81 369.887C1374.81 356.355 1365.8 347.333 1350.02 336.056L1295.93 297.714C1273.39 281.926 1264.38 261.628 1266.63 239.073C1268.89 202.987 1291.42 180.433 1331.99 180.433C1343.26 180.433 1361.29 182.688 1374.81 182.688H1395.1L1390.59 230.052H1388.34C1388.34 207.498 1370.31 191.71 1343.26 191.71C1318.47 191.71 1302.69 205.242 1302.69 223.286C1302.69 236.818 1311.71 245.84 1325.23 254.861L1383.83 297.714Z" fill="black"></path><path d="M1987.85 184.944C2062.22 184.944 2109.55 230.052 2109.55 299.97C2109.55 372.143 2062.22 414.996 1987.85 414.996H1872.9V412.74H1877.41C1888.68 412.74 1897.7 403.718 1897.7 392.441V207.498C1897.7 196.221 1888.68 189.454 1877.41 189.454H1872.9V187.199L1987.85 184.944ZM1945.03 401.463H1983.34C2028.42 401.463 2057.72 363.121 2057.72 299.97C2057.72 236.818 2028.42 198.476 1983.34 198.476H1945.03V401.463Z" fill="black"></path><path d="M2316.9 392.441C2323.66 405.974 2334.93 410.485 2343.95 410.485H2346.2V412.74H2244.78V410.485H2247.03C2256.05 410.485 2265.06 403.718 2258.3 390.186L2242.53 349.589H2168.15L2152.37 390.186C2147.87 403.718 2156.88 410.485 2163.64 410.485H2165.9V412.74H2098.28V410.485H2100.54C2109.55 410.485 2120.82 405.974 2127.58 392.441L2199.7 221.03C2201.96 216.519 2215.48 187.199 2215.48 178.177H2217.73L2316.9 392.441ZM2240.27 338.312L2208.72 257.117L2177.17 338.312H2240.27Z" fill="black"></path><path d="M2458.89 184.944C2497.21 184.944 2533.27 200.731 2533.27 248.095C2533.27 275.16 2517.49 306.736 2481.43 311.247C2494.95 315.757 2506.22 329.29 2512.98 340.567C2512.98 342.822 2533.27 374.398 2544.54 387.931C2558.06 405.974 2567.07 412.74 2582.85 412.74V414.996H2551.3C2517.49 414.996 2492.7 408.229 2476.92 381.164C2470.16 367.632 2454.38 333.801 2449.88 324.779C2443.11 311.247 2436.35 304.48 2429.59 302.225V299.97H2438.61C2456.64 299.97 2472.41 290.948 2479.18 261.628C2479.18 257.117 2481.43 252.606 2481.43 245.84C2479.18 214.264 2465.65 200.731 2443.11 200.731C2434.1 200.731 2422.83 200.731 2418.32 200.731V392.441C2418.32 403.718 2427.34 412.74 2438.61 412.74H2443.11V414.996H2346.2V412.74H2350.71C2361.98 412.74 2370.99 403.718 2370.99 392.441V209.753C2370.99 198.476 2361.98 189.454 2350.71 189.454H2346.2V187.199L2458.89 184.944Z" fill="black"></path><path d="M2673 184.944C2718.08 184.944 2754.14 200.731 2754.14 241.329C2754.14 270.649 2736.11 286.437 2715.82 290.948C2747.38 293.203 2772.17 318.013 2772.17 351.844C2772.17 394.697 2736.11 417.251 2684.27 417.251H2585.1V414.996H2589.61C2600.88 414.996 2609.9 405.974 2609.9 394.697V209.753C2609.9 198.476 2600.88 189.454 2589.61 189.454H2585.1V187.199L2673 184.944ZM2668.49 401.463C2695.54 401.463 2715.82 385.675 2715.82 347.333C2715.82 308.991 2691.03 293.203 2663.99 293.203V290.948C2684.27 290.948 2702.3 279.671 2702.3 245.84C2702.3 212.009 2686.52 198.476 2661.73 198.476H2652.72V399.208H2668.49V401.463Z" fill="black"></path><path d="M2988.53 392.441C2995.3 405.974 3006.56 410.485 3015.58 410.485H3017.83V412.74H2916.41V410.485H2918.67C2927.68 410.485 2936.7 403.718 2929.94 390.186L2914.16 349.589H2839.78L2824.01 390.186C2819.5 403.718 2828.51 410.485 2835.28 410.485H2837.53V412.74H2769.92V410.485H2772.17C2781.18 410.485 2792.45 405.974 2799.22 392.441L2871.34 221.03C2873.59 216.519 2887.11 187.199 2887.11 178.177H2889.37L2988.53 392.441ZM2909.65 338.312L2878.1 257.117L2846.55 338.312H2909.65Z" fill="black"></path><path d="M3117 414.996H3020.09V412.74H3024.59C3035.86 412.74 3044.88 403.718 3044.88 392.441V209.753C3044.88 198.476 3035.86 189.454 3024.59 189.454H3020.09V187.199H3114.75V189.454H3110.24C3098.97 189.454 3089.95 198.476 3089.95 209.753V392.441C3089.95 403.718 3098.97 412.74 3110.24 412.74H3114.75L3117 414.996Z" fill="black"></path><path d="M1638.53 439.805C1701.63 439.805 1748.96 383.42 1748.96 324.779C1748.96 254.861 1681.35 225.541 1699.38 139.835C1631.76 178.177 1634.02 252.606 1645.29 281.926C1652.05 297.714 1649.79 313.502 1638.53 318.013C1627.26 322.524 1593.45 320.268 1625 209.753C1676.84 33.8312 1566.4 0 1566.4 0C1665.57 169.156 1525.84 173.667 1525.84 324.779C1528.09 387.931 1575.42 439.805 1638.53 439.805Z" fill="black"></path><path d="M1764.74 405.974H1638.53H1510.06L1501.04 453.338H1638.53H1776.01L1764.74 405.974Z" fill="black"></path><path d="M1800.8 453.338H1638.53H1476.25L1460.48 521H1638.53H1814.32L1800.8 453.338Z" fill="black"></path></g><defs><clipPath id="clip0_143_2"><rect width="3117" height="521" fill="white"></rect></clipPath></defs></svg>