<svg xmlns="http://www.w3.org/2000/svg" viewBox="0 0 64 64" role="img" aria-label="Akmens Darbai favicon">
  <rect width="64" height="64" rx="8" fill="#3a3a3a"/>
  <path d="M15 50V14h9.5c3.8 0 6.7.8 8.8 2.4 2.4 1.9 3.6 4.8 3.6 8.5 0 3.8-1.2 6.8-3.7 8.9-2.2 1.8-5.2 2.7-9 2.7h-2.8V50H15Zm9.2-18.9c2 0 3.6-.5 4.7-1.4 1.3-1.1 2-2.7 2-4.8 0-2-.6-3.5-1.8-4.5-1-.8-2.5-1.2-4.5-1.2h-3.1v11.9h2.7Z" fill="#f2f2f2"/>
  <path d="M39 50V14h10.5c4.2 0 7.5 1.1 9.8 3.4 2.5 2.4 3.7 5.8 3.7 10.2 0 4.4-1.3 8-3.8 10.6-2.4 2.4-5.8 3.6-10.3 3.6H45V50h-6Zm10.2-13.7c2.5 0 4.4-.7 5.7-2 1.3-1.4 2-3.6 2-6.5 0-2.8-.6-4.8-1.9-6-1.2-1.2-2.9-1.8-5.2-1.8H45v16.3h4.2Z" fill="#f2f2f2"/>
</svg>
