<svg xmlns="http://www.w3.org/2000/svg" width="28" height="30" viewBox="0 0 28 30" fill="none"><rect width="28" height="30" rx="6" fill="white"></rect><path d="M13.9004 22.5C16.7004 22.5 18.8004 20 18.8004 17.4C18.8004 14.3 15.8004 13 16.6004 9.2C13.6004 10.9 13.7004 14.2 14.2004 15.5C14.5004 16.2 14.4004 16.9 13.9004 17.1C13.4004 17.3 11.9004 17.2 13.3004 12.3C15.6004 4.5 10.7004 3 10.7004 3C15.1004 10.5 8.90039 10.7 8.90039 17.4C9.00039 20.2 11.1004 22.5 13.9004 22.5Z" fill="black"></path><path d="M19.5008 21H13.9008H8.20078L7.80078 23.1H13.9008H20.0008L19.5008 21Z" fill="black"></path><path d="M21.1 23.1H13.9H6.7L6 26.1H13.9H21.7L21.1 23.1Z" fill="black"></path></svg>