<svg xmlns="http://www.w3.org/2000/svg" width="3117" height="521" viewBox="0 0 3117 521" fill="none"><g clip-path="url(#clip0_24_25)"><mask id="mask0_24_25" style="mask-type:luminance" maskUnits="userSpaceOnUse" x="0" y="0" width="3117" height="521"><path d="M3117 0H0V521H3117V0Z" fill="white"></path></mask><g mask="url(#mask0_24_25)"><path d="M214.111 392.442C220.872 405.975 232.141 410.486 241.156 410.486H243.41V412.741H144.243V410.486H146.497C155.512 410.486 164.527 403.719 157.766 390.187L141.989 349.59H69.8677L54.0911 390.187C49.5835 403.719 58.5987 410.486 65.3601 410.486H67.6139V412.741H0V410.486H2.2538C11.269 410.486 22.538 405.975 29.2993 392.442L101.421 221.031C103.675 216.52 117.197 187.2 117.197 178.178H119.451L214.111 392.442ZM137.482 338.313L105.928 257.118L74.3753 338.313H137.482Z" fill="white"></path><path d="M320.039 392.44C320.039 403.717 329.055 412.739 340.324 412.739H344.831V414.995H247.918V412.739H252.426C263.695 412.739 272.71 403.717 272.71 392.44V209.752C272.71 198.475 263.695 189.453 252.426 189.453H247.918V187.198H342.577V189.453H338.07C326.801 189.453 317.786 198.475 317.786 209.752V392.44H320.039ZM448.506 392.44C457.521 405.973 468.79 412.739 480.059 412.739V414.995H453.013C443.998 414.995 405.684 414.995 385.4 387.93C378.638 378.908 329.055 306.735 329.055 306.735L403.43 202.986C407.937 196.22 405.684 187.198 396.669 187.198H394.415V184.943H466.536V187.198H464.282C450.76 187.198 437.237 193.964 430.475 202.986L369.623 279.67L448.506 392.44Z" fill="white"></path><path d="M748.26 392.442C750.514 405.975 759.529 412.741 770.798 412.741H775.305V414.996H680.646V412.741H685.154C691.915 412.741 698.676 405.975 696.422 399.209L682.9 279.672L624.301 385.676C624.301 385.676 613.032 405.975 613.032 421.763H610.778L529.642 279.672L518.373 399.209C518.373 405.975 522.88 412.741 529.642 412.741H534.149V414.996H468.789V412.741H473.297C484.566 412.741 495.835 405.975 495.835 392.442L525.134 180.434H527.388L624.301 349.59L718.96 180.434H721.214L748.26 392.442Z" fill="white"></path><path d="M951.101 414.997H788.828V412.741H793.336C804.605 412.741 813.62 403.719 813.62 392.442V207.499C813.62 196.222 804.605 187.2 793.336 187.2H788.828V184.945H910.533C924.056 184.945 942.086 180.434 948.848 178.178V236.819H946.594V232.308C946.594 212.01 935.325 198.477 915.041 198.477H860.95V295.46H901.518C917.294 295.46 928.563 284.183 928.563 266.139V263.884H930.817V340.568H928.563V338.313C928.563 322.525 917.294 311.248 901.518 308.992H858.696V401.464H899.264C930.817 401.464 951.101 381.165 960.117 347.334H962.37L951.101 414.997Z" fill="white"></path><path d="M1235.08 184.945V187.2H1228.32C1217.05 187.2 1210.29 196.222 1208.03 207.499V378.91C1208.03 403.719 1212.54 421.763 1212.54 421.763H1210.29L1050.27 263.884V394.698C1050.27 405.975 1059.28 414.996 1070.55 414.996H1077.31V417.252H982.652V414.996H989.414C1000.68 414.996 1009.7 405.975 1009.7 394.698V221.031C1009.7 196.222 1005.19 180.434 1005.19 180.434H1007.45L1167.47 338.313V207.499C1167.47 196.222 1158.45 187.2 1147.18 187.2H1140.42V184.945H1235.08Z" fill="white"></path><path d="M1383.83 297.715C1401.86 311.248 1413.13 327.035 1413.13 351.845C1410.88 394.698 1379.32 419.507 1329.74 419.507C1300.44 419.507 1275.65 412.741 1264.38 399.209C1259.87 385.676 1264.38 358.611 1271.14 342.823H1273.39C1271.14 376.655 1295.93 405.975 1331.99 405.975C1359.04 405.975 1374.81 390.187 1374.81 369.888C1374.81 356.356 1365.8 347.334 1350.02 336.057L1295.93 297.715C1273.39 281.927 1264.38 261.629 1266.63 239.074C1268.89 202.988 1291.42 180.434 1331.99 180.434C1343.26 180.434 1361.29 182.689 1374.81 182.689H1395.1L1390.59 230.053H1388.34C1388.34 207.499 1370.31 191.711 1343.26 191.711C1318.47 191.711 1302.69 205.243 1302.69 223.287C1302.69 236.819 1311.71 245.841 1325.23 254.862L1383.83 297.715Z" fill="white"></path><path d="M1987.85 184.943C2062.22 184.943 2109.55 230.051 2109.55 299.969C2109.55 372.142 2062.22 414.995 1987.85 414.995H1872.9V412.739H1877.41C1888.68 412.739 1897.7 403.717 1897.7 392.44V207.497C1897.7 196.22 1888.68 189.453 1877.41 189.453H1872.9V187.198L1987.85 184.943ZM1945.03 401.462H1983.34C2028.42 401.462 2057.72 363.12 2057.72 299.969C2057.72 236.817 2028.42 198.475 1983.34 198.475H1945.03V401.462Z" fill="white"></path><path d="M2316.9 392.442C2323.66 405.975 2334.93 410.486 2343.95 410.486H2346.2V412.741H2244.78V410.486H2247.03C2256.05 410.486 2265.06 403.719 2258.3 390.187L2242.53 349.59H2168.15L2152.37 390.187C2147.87 403.719 2156.88 410.486 2163.64 410.486H2165.9V412.741H2098.28V410.486H2100.54C2109.55 410.486 2120.82 405.975 2127.58 392.442L2199.7 221.031C2201.96 216.52 2215.48 187.2 2215.48 178.178H2217.73L2316.9 392.442ZM2240.27 338.313L2208.72 257.118L2177.17 338.313H2240.27Z" fill="white"></path><path d="M2458.89 184.943C2497.21 184.943 2533.27 200.73 2533.27 248.094C2533.27 275.159 2517.49 306.735 2481.43 311.246C2494.95 315.756 2506.22 329.289 2512.98 340.566C2512.98 342.821 2533.27 374.397 2544.54 387.93C2558.06 405.973 2567.07 412.739 2582.85 412.739V414.995H2551.3C2517.49 414.995 2492.7 408.228 2476.92 381.163C2470.16 367.631 2454.38 333.8 2449.88 324.778C2443.11 311.246 2436.35 304.479 2429.59 302.224V299.969H2438.61C2456.64 299.969 2472.41 290.947 2479.18 261.627C2479.18 257.116 2481.43 252.605 2481.43 245.839C2479.18 214.263 2465.65 200.73 2443.11 200.73C2434.1 200.73 2422.83 200.73 2418.32 200.73V392.44C2418.32 403.717 2427.34 412.739 2438.61 412.739H2443.11V414.995H2346.2V412.739H2350.71C2361.98 412.739 2370.99 403.717 2370.99 392.44V209.752C2370.99 198.475 2361.98 189.453 2350.71 189.453H2346.2V187.198L2458.89 184.943Z" fill="white"></path><path d="M2673 184.943C2718.08 184.943 2754.14 200.73 2754.14 241.328C2754.14 270.648 2736.11 286.436 2715.82 290.947C2747.38 293.202 2772.17 318.012 2772.17 351.843C2772.17 394.696 2736.11 417.25 2684.27 417.25H2585.1V414.995H2589.61C2600.88 414.995 2609.9 405.973 2609.9 394.696V209.752C2609.9 198.475 2600.88 189.453 2589.61 189.453H2585.1V187.198L2673 184.943ZM2668.49 401.462C2695.54 401.462 2715.82 385.674 2715.82 347.332C2715.82 308.99 2691.03 293.202 2663.99 293.202V290.947C2684.27 290.947 2702.3 279.67 2702.3 245.839C2702.3 212.008 2686.52 198.475 2661.73 198.475H2652.72V399.207H2668.49V401.462Z" fill="white"></path><path d="M2988.53 392.442C2995.3 405.975 3006.56 410.486 3015.58 410.486H3017.83V412.741H2916.41V410.486H2918.67C2927.68 410.486 2936.7 403.719 2929.94 390.187L2914.16 349.59H2839.78L2824.01 390.187C2819.5 403.719 2828.51 410.486 2835.28 410.486H2837.53V412.741H2769.92V410.486H2772.17C2781.18 410.486 2792.45 405.975 2799.22 392.442L2871.34 221.031C2873.59 216.52 2887.11 187.2 2887.11 178.178H2889.37L2988.53 392.442ZM2909.65 338.313L2878.1 257.118L2846.55 338.313H2909.65Z" fill="white"></path><path d="M3117 414.996H3020.09V412.74H3024.59C3035.86 412.74 3044.88 403.718 3044.88 392.441V209.753C3044.88 198.476 3035.86 189.454 3024.59 189.454H3020.09V187.199H3114.75V189.454H3110.24C3098.97 189.454 3089.95 198.476 3089.95 209.753V392.441C3089.95 403.718 3098.97 412.74 3110.24 412.74H3114.75L3117 414.996Z" fill="white"></path><path d="M1638.53 439.805C1701.63 439.805 1748.96 383.42 1748.96 324.779C1748.96 254.861 1681.35 225.541 1699.38 139.835C1631.76 178.177 1634.02 252.606 1645.29 281.926C1652.05 297.714 1649.79 313.502 1638.53 318.013C1627.26 322.524 1593.45 320.268 1625 209.753C1676.84 33.8312 1566.4 0 1566.4 0C1665.57 169.156 1525.84 173.667 1525.84 324.779C1528.09 387.931 1575.42 439.805 1638.53 439.805Z" fill="white"></path><path d="M1764.74 405.975H1638.53H1510.06L1501.04 453.339H1638.53H1776.01L1764.74 405.975Z" fill="white"></path><path d="M1800.8 453.338H1638.53H1476.25L1460.48 521H1638.53H1814.32L1800.8 453.338Z" fill="white"></path></g></g><defs><clipPath id="clip0_24_25"><rect width="3117" height="521" fill="white"></rect></clipPath></defs></svg>